<svg width="100" height="100" viewBox="0 0 100 100" fill="none" xmlns="http://www.w3.org/2000/svg">
<path opacity="0.1" d="M78.3702 37.5875C76.4889 37.5875 73.997 37.5459 70.8945 37.5459C63.3281 37.5459 57.1066 31.2834 57.1066 23.6459V10.2459C57.1066 9.19171 56.265 8.33337 55.2212 8.33337H33.1819C22.8967 8.33337 14.5835 16.775 14.5835 27.1209V72.0167C14.5835 82.8709 23.2928 91.6667 34.0401 91.6667H66.8596C77.1078 91.6667 85.4168 83.2792 85.4168 72.925V39.4625C85.4168 38.4042 84.5793 37.55 83.5314 37.5542C81.7698 37.5667 79.6574 37.5875 78.3702 37.5875Z" fill="#1E40AF"/>
<path opacity="0.1" d="M67.016 10.6971C65.7702 9.4013 63.5952 10.293 63.5952 12.0888V23.0763C63.5952 27.6846 67.391 31.4763 71.9994 31.4763C74.9036 31.5096 78.9369 31.518 82.3619 31.5096C84.1161 31.5055 85.0077 29.4096 83.7911 28.143C79.3952 23.5721 71.5244 15.3805 67.016 10.6971Z" fill="#1E40AF"/>
<path fill-rule="evenodd" clip-rule="evenodd" d="M37.39 47.4484H51.4942C53.2067 47.4484 54.5984 46.0609 54.5984 44.3484C54.5984 42.6359 53.2067 41.2443 51.4942 41.2443H37.39C35.6775 41.2443 34.29 42.6359 34.29 44.3484C34.29 46.0609 35.6775 47.4484 37.39 47.4484ZM37.3901 68.2576H60.0735C61.786 68.2576 63.1776 66.8701 63.1776 65.1576C63.1776 63.4451 61.786 62.0534 60.0735 62.0534H37.3901C35.6776 62.0534 34.2901 63.4451 34.2901 65.1576C34.2901 66.8701 35.6776 68.2576 37.3901 68.2576Z" fill="#1E40AF"/>
</svg>
